<svg xmlns="http://www.w3.org/2000/svg" viewBox="0 0 187.55 58.11"><defs><style>.cls-1,.cls-2,.cls-3,.cls-4,.cls-5{fill:none;stroke:#888;stroke-miterlimit:10;}.cls-1,.cls-2,.cls-3{stroke-width:0.95px;}.cls-2{stroke-dasharray:4.87 1.95;}.cls-3{stroke-dasharray:5.03 2.01;}.cls-4{stroke-width:0.95px;}.cls-6{fill:#888;}.cls-7{fill:#48bfb0;}.cls-8{fill:#fff;}</style></defs><g id="Content"><line class="cls-1" x1="50.34" y1="7.63" x2="48.58" y2="9.39"/><line class="cls-2" x1="47.2" y1="10.77" x2="23.8" y2="34.17"/><polyline class="cls-1" points="23.11 34.86 21.34 36.63 23.84 36.63"/><polyline class="cls-3" points="25.85 36.63 115.28 36.63 140.97 10.94"/><line class="cls-1" x1="141.68" y1="10.23" x2="143.45" y2="8.46"/><rect class="cls-4" x="50.29" y="1.68" width="42.5" height="10.62" rx="1.58"/><path class="cls-5" d="M21.34,56.43a19.8,19.8,0,1,1,19.8-19.8A19.82,19.82,0,0,1,21.34,56.43Zm0-35.6a15.8,15.8,0,1,0,15.8,15.8A15.82,15.82,0,0,0,21.34,20.83Z"/><path class="cls-6" d="M38.49,46.54l-3.46-2a15.83,15.83,0,0,0,0-15.79l3.46-2a19.84,19.84,0,0,1,0,19.81Z"/><path class="cls-5" d="M129.28,50.63a19.8,19.8,0,1,1,0-28A19.82,19.82,0,0,1,129.28,50.63ZM104.11,25.46a15.8,15.8,0,1,0,22.34,0A15.81,15.81,0,0,0,104.11,25.46Z"/><path class="cls-6" d="M134.41,31.51l-3.86,1a15.86,15.86,0,0,0-11.17-11.17l1-3.87a19.84,19.84,0,0,1,14,14Z"/><circle class="cls-7" cx="21.34" cy="36.63" r="6.22"/><path class="cls-8" d="M21.34,40.47a.5.5,0,0,1-.5-.5V37.13h-2a.48.48,0,0,1-.44-.27.46.46,0,0,1-.06-.23.57.57,0,0,1,.1-.3L20.94,33a.49.49,0,0,1,.4-.2.48.48,0,0,1,.4.2l2.48,3.33a.53.53,0,0,1,.05.53.5.5,0,0,1-.45.27h-2V40A.5.5,0,0,1,21.34,40.47Z"/><rect class="cls-4" x="143.51" y="1.68" width="42.5" height="10.62" rx="1.58"/><circle class="cls-6" cx="115.28" cy="36.63" r="0.88"/></g></svg>