<svg xmlns="http://www.w3.org/2000/svg" viewBox="0 0 187.55 58.11"><defs><style>.cls-1,.cls-2,.cls-3,.cls-4{fill:none;stroke:#888;stroke-miterlimit:10;}.cls-1,.cls-2{stroke-width:0.95px;}.cls-2{stroke-dasharray:4.75 1.9;}.cls-3{stroke-width:0.95px;}.cls-5{fill:#888;}.cls-6{fill:#48bfb0;}.cls-7{fill:#fff;}</style></defs><g id="Content"><line class="cls-1" x1="115.28" y1="37.09" x2="117.05" y2="35.32"/><line class="cls-2" x1="118.39" y1="33.97" x2="141.25" y2="11.12"/><line class="cls-1" x1="141.92" y1="10.45" x2="143.69" y2="8.68"/><polyline class="cls-3" points="115.28 37.08 21.34 37.08 50.87 7.56"/><rect class="cls-3" x="50.29" y="2.13" width="42.5" height="10.62" rx="1.58"/><path class="cls-4" d="M21.34,56.88a19.8,19.8,0,1,1,19.8-19.79A19.82,19.82,0,0,1,21.34,56.88Zm0-35.59a15.8,15.8,0,1,0,15.8,15.8A15.81,15.81,0,0,0,21.34,21.29Z"/><path class="cls-5" d="M38.49,47,35,45a15.84,15.84,0,0,0,0-15.8l3.46-2a19.82,19.82,0,0,1,0,19.8Z"/><path class="cls-4" d="M129.28,51.08a19.8,19.8,0,1,1,0-28A19.82,19.82,0,0,1,129.28,51.08ZM104.11,25.91a15.8,15.8,0,1,0,22.34,0A15.83,15.83,0,0,0,104.11,25.91Z"/><path class="cls-5" d="M134.41,32l-3.86,1a15.86,15.86,0,0,0-11.17-11.17l1-3.86a19.8,19.8,0,0,1,14,14Z"/><circle class="cls-6" cx="21.34" cy="37.09" r="6.22"/><path class="cls-7" d="M21.34,33.25a.5.5,0,0,1,.5.5v2.83h2a.51.51,0,0,1,.45.28.59.59,0,0,1,.05.23.45.45,0,0,1-.1.29l-2.48,3.34a.51.51,0,0,1-.4.2.52.52,0,0,1-.4-.2l-2.48-3.34a.51.51,0,0,1,.4-.8h2V33.75A.5.5,0,0,1,21.34,33.25Z"/><circle class="cls-6" cx="115.28" cy="37.09" r="6.22"/><path class="cls-7" d="M115.28,40.92a.5.5,0,0,1-.5-.5V37.59h-2a.51.51,0,0,1-.45-.28.59.59,0,0,1,0-.22.47.47,0,0,1,.1-.3l2.48-3.34a.5.5,0,0,1,.8,0l2.48,3.34a.5.5,0,0,1-.4.8h-2v2.83A.5.5,0,0,1,115.28,40.92Z"/><circle class="cls-6" cx="50.87" cy="7.44" r="6.22"/><path class="cls-7" d="M50.87,11.28a.5.5,0,0,1-.5-.51V7.94h-2a.52.52,0,0,1-.45-.27.59.59,0,0,1,0-.23.49.49,0,0,1,.1-.3l2.48-3.33a.5.5,0,0,1,.8,0l2.48,3.33a.53.53,0,0,1,0,.53.52.52,0,0,1-.45.27h-2v2.83A.5.5,0,0,1,50.87,11.28Z"/><rect class="cls-3" x="143.51" y="2.13" width="42.5" height="10.62" rx="1.58"/></g></svg>