<svg xmlns="http://www.w3.org/2000/svg" viewBox="0 0 187.55 58.11"><defs><style>.cls-1,.cls-2{fill:none;stroke:#888;stroke-miterlimit:10;}.cls-1{stroke-width:0.95px;}.cls-3{fill:#888;}.cls-4{fill:#48bfb0;}.cls-5{fill:#fff;}</style></defs><g id="Content"><polyline class="cls-1" points="144.34 8.03 115.28 37.08 21.34 37.08 50.87 7.56"/><rect class="cls-1" x="50.29" y="2.13" width="42.5" height="10.62" rx="1.58"/><path class="cls-2" d="M21.34,56.88a19.8,19.8,0,1,1,19.8-19.79A19.82,19.82,0,0,1,21.34,56.88Zm0-35.59a15.8,15.8,0,1,0,15.8,15.8A15.81,15.81,0,0,0,21.34,21.29Z"/><path class="cls-3" d="M38.49,47,35,45a15.84,15.84,0,0,0,0-15.8l3.46-2a19.82,19.82,0,0,1,0,19.8Z"/><path class="cls-2" d="M129.28,51.08a19.8,19.8,0,1,1,0-28A19.82,19.82,0,0,1,129.28,51.08ZM104.11,25.91a15.8,15.8,0,1,0,22.34,0A15.83,15.83,0,0,0,104.11,25.91Z"/><path class="cls-3" d="M134.41,32l-3.86,1a15.86,15.86,0,0,0-11.17-11.17l1-3.86a19.8,19.8,0,0,1,14,14Z"/><circle class="cls-4" cx="21.34" cy="37.09" r="6.22"/><path class="cls-5" d="M21.34,33.25a.5.5,0,0,1,.5.5v2.83h2a.51.51,0,0,1,.45.28.59.59,0,0,1,.05.23.45.45,0,0,1-.1.29l-2.48,3.34a.51.51,0,0,1-.4.2.52.52,0,0,1-.4-.2l-2.48-3.34a.51.51,0,0,1,.4-.8h2V33.75A.5.5,0,0,1,21.34,33.25Z"/><circle class="cls-4" cx="50.87" cy="7.44" r="6.22"/><path class="cls-5" d="M50.87,11.28a.5.5,0,0,1-.5-.51V7.94h-2a.52.52,0,0,1-.45-.27.59.59,0,0,1,0-.23.49.49,0,0,1,.1-.3l2.48-3.33a.5.5,0,0,1,.8,0l2.48,3.33a.53.53,0,0,1,0,.53.52.52,0,0,1-.45.27h-2v2.83A.5.5,0,0,1,50.87,11.28Z"/><rect class="cls-1" x="143.51" y="2.13" width="42.5" height="10.62" rx="1.58"/><circle class="cls-4" cx="144.09" cy="7.44" r="6.22"/><path class="cls-5" d="M144.09,11.28a.5.5,0,0,1-.5-.51V7.94h-2a.49.49,0,0,1-.44-.27.46.46,0,0,1-.06-.23.57.57,0,0,1,.1-.3l2.48-3.33a.49.49,0,0,1,.4-.2.48.48,0,0,1,.4.2L147,7.14a.53.53,0,0,1,.05.53.52.52,0,0,1-.45.27h-2v2.83A.5.5,0,0,1,144.09,11.28Z"/></g></svg>