<svg xmlns="http://www.w3.org/2000/svg" viewBox="0 0 116.08 18.44"><defs><style>.cls-1{fill:#fff;}.cls-2{fill:#222;}.cls-3{fill:#48bfb0;}.cls-4{fill:#d86c6c;}.cls-5{fill:#f06ef4;}.cls-6{fill:#e0c83f;}.cls-7{fill:#e588d8;}.cls-8{fill:#d36c8e;}.cls-9{fill:#d6db72;}</style></defs><g id="Layer_2" data-name="Layer 2"><g id="Logo"><path class="cls-1" d="M8.65,14.89H2L.71,18.24H0L5,5.57h.72l5,12.67H10Zm-.23-.62L5.32,6.35,2.24,14.27Z"/><path class="cls-1" d="M19.73,9.19v9h-.65v-2a3.55,3.55,0,0,1-3.42,2.21,3.32,3.32,0,0,1-3.48-3.57V9.19h.64v5.68a2.73,2.73,0,0,0,2.89,3c1.92,0,3.37-1.38,3.37-3.82V9.19Z"/><path class="cls-1" d="M24.44,9.78V16.1c0,1.59.83,1.79,2.78,1.58v.56c-2.31.36-3.42-.22-3.42-2.14V9.78H21.72V9.19H23.8V6.85l.64-.2V9.19h2.78v.59Z"/><path class="cls-1" d="M28.38,13.71a4.74,4.74,0,1,1,4.72,4.73A4.68,4.68,0,0,1,28.38,13.71Zm8.83,0a4.1,4.1,0,1,0-4.11,4.11A4.07,4.07,0,0,0,37.21,13.71Z"/><path class="cls-1" d="M49.76,5.57V18.24h-.67V12H41.25v6.21h-.67V5.57h.67v5.84h7.84V5.57Z"/><path class="cls-1" d="M52.29,13.71A4.74,4.74,0,1,1,57,18.44,4.68,4.68,0,0,1,52.29,13.71Zm8.84,0A4.1,4.1,0,1,0,57,17.82,4.07,4.07,0,0,0,61.13,13.71Z"/><path class="cls-1" d="M65.63,9.78V16.1c0,1.59.84,1.79,2.79,1.58v.56C66.1,18.6,65,18,65,16.1V9.78H62.92V9.19H65V6.85l.63-.2V9.19h2.79v.59Z"/><path class="cls-1" d="M78.86,9.42a3.81,3.81,0,0,1-3.93,3.88H71.49v4.94h-.67V5.57h4.11A3.79,3.79,0,0,1,78.86,9.42Zm-.67,0a3.15,3.15,0,0,0-3.26-3.24H71.49v6.5h3.44A3.16,3.16,0,0,0,78.19,9.42Z"/><path class="cls-1" d="M81,6.17a.56.56,0,0,1,.56-.58.57.57,0,0,1,0,1.14A.56.56,0,0,1,81,6.17Zm.23,3h.65v9h-.65Z"/><path class="cls-1" d="M93.28,13.75a1.62,1.62,0,0,1,0,.31H84.85a3.9,3.9,0,0,0,4.05,3.76,3.67,3.67,0,0,0,3.33-1.75l.56.32a4.36,4.36,0,0,1-3.89,2.05,4.55,4.55,0,0,1-4.7-4.73,4.54,4.54,0,1,1,9.08,0Zm-8.45-.29h7.8A3.85,3.85,0,0,0,88.81,9.6,3.9,3.9,0,0,0,84.83,13.46Z"/><path class="cls-2" d="M85.55.48s-.67,2.63-1,3.53-1.2,4.24-1.2,4.24a79,79,0,0,1,9,2.32c3.35,1.22,13,5.15,14.81,5.83s6.19,1.71,6.19,1.71a20.07,20.07,0,0,0,1.6-4.17c.52-2.18.75-3.89.75-3.89s-5.47-1.46-7.31-2.11S95.7,3.36,93.92,2.77,85.55.48,85.55.48Z"/><path class="cls-1" d="M115,14.59a22.81,22.81,0,0,0,.84-3.25c0-.28.1-.56.16-.83a1.5,1.5,0,0,0,.07-.59.5.5,0,0,0-.39-.34l-.79-.26c-1.09-.38-2.23-.5-3.34-.81-.59-.17-1.17-.38-1.76-.56s-1.16-.36-1.72-.58c-2.27-.88-4.65-1.46-6.91-2.39C100,4.49,98.79,4,97.57,3.64S95.16,2.79,94,2.38s-2.47-.67-3.71-1C89.63,1.21,89,1,88.43.86S87.34.56,86.79.43c-.24-.06-.49-.1-.72-.17S85.63.09,85.41,0a.29.29,0,0,0-.27.5,13.84,13.84,0,0,0-.42,1.91c-.12.68-.3,1.35-.47,2s-.42,1.28-.63,1.91l-.36,1.08a1.62,1.62,0,0,0-.18.74.29.29,0,0,0,.19.21c.54.12,1.09.19,1.62.32l1.86.5c1.21.31,2.41.65,3.59,1s2.36.77,3.53,1.16,2.32.84,3.46,1.3c2.29.92,4.59,1.85,6.9,2.73a42.87,42.87,0,0,0,7.2,2.49c.57.11,1.11.32,1.67.46s.59,0,.76-.43C114.33,16.88,114.62,15.71,115,14.59Zm-2.72,2.95c-.51-.14-1-.22-1.55-.35s-1.12-.34-1.67-.52c-1.23-.41-2.43-.91-3.64-1.38-2.26-.88-4.52-1.81-6.79-2.68-1.12-.42-2.23-.88-3.35-1.31s-2.19-.75-3.3-1.1-2.29-.84-3.46-1.13S86.18,8.43,85,8.14c-.43-.1-.86-.17-1.28-.25,0,0,0,0,0-.06l.18-.54c.12-.36.23-.73.36-1.09.21-.57.4-1.15.56-1.74s.29-1.19.41-1.79.23-1.29.42-1.93l.16.06c.23.07.47.11.71.16l1.57.42c1.19.31,2.37.65,3.57,1A32.82,32.82,0,0,1,95.15,3.4c1.17.44,2.36.81,3.54,1.22S101,5.56,102.15,6c.58.2,1.15.42,1.74.58s1.06.4,1.61.56c1.1.32,2.15.76,3.24,1.13.56.19,1.14.33,1.7.52a17.44,17.44,0,0,0,1.75.49c.52.11,1,.22,1.57.35s1,.31,1.54.47l.18.06c0,.09,0,.19,0,.27-.05.26-.11.52-.15.78-.1.56-.27,1.09-.39,1.65-.24,1.16-.72,2.26-1,3.4-.15.49-.3,1-.49,1.46a1.16,1.16,0,0,0-.07.15,1.13,1.13,0,0,0-.18,0C112.82,17.73,112.56,17.62,112.28,17.54Z"/><path class="cls-3" d="M88.09,5.63l-.2-.09c-.09.22-.21.59-.39,1.11a.28.28,0,0,1-.16.19.33.33,0,0,1-.26,0,.34.34,0,0,1-.2-.17.31.31,0,0,1,0-.25l.22-.68c.09-.25.23-.61.42-1.09s.34-.86.42-1.1c.14-.42.33-.58.56-.49l.24,0,.35.11a1.57,1.57,0,0,1,.79.61,1.07,1.07,0,0,1,.18,1,1.21,1.21,0,0,1-.82.82A1.78,1.78,0,0,1,88.09,5.63Zm.73-1.79-.14,0-.1,0c0,.07-.06.19-.12.34s-.17.45-.32.82L88.3,5A1,1,0,0,0,89,5a.61.61,0,0,0,.44-.41.49.49,0,0,0-.13-.45A.92.92,0,0,0,88.82,3.84Z"/><path class="cls-4" d="M90.66,6.73c0,.09-.07.24-.14.44s-.11.36-.14.45a.31.31,0,0,1-.17.2.36.36,0,0,1-.27,0,.39.39,0,0,1-.21-.17.32.32,0,0,1,0-.27c0-.09.07-.24.13-.44S90,6.59,90,6.5s.12-.32.21-.53a4.79,4.79,0,0,0,.2-.53.3.3,0,0,1,.18-.2.36.36,0,0,1,.27,0,.34.34,0,0,1,.2.17.3.3,0,0,1,0,.26c0,.15-.11.32-.2.53S90.71,6.58,90.66,6.73Zm.39-1.85a.39.39,0,0,1-.23-.19.3.3,0,0,1,0-.29.34.34,0,0,1,.2-.22.39.39,0,0,1,.3,0,.41.41,0,0,1,.23.2.37.37,0,0,1,0,.29.36.36,0,0,1-.2.22A.39.39,0,0,1,91.05,4.88Z"/><path class="cls-5" d="M92.1,8.59A1.62,1.62,0,0,1,91.24,8a1.09,1.09,0,0,1-.12-1,1.8,1.8,0,0,1,.67-.93,1.22,1.22,0,0,1,1.13-.14,1.5,1.5,0,0,1,.65.37.63.63,0,0,1,.18.68.62.62,0,0,1-.46.37,4.52,4.52,0,0,1-.63.09l-.94.09a.67.67,0,0,0,.22.28A.88.88,0,0,0,92.3,8a1.11,1.11,0,0,0,.59.05.89.89,0,0,1,.36,0c.17.06.23.17.17.33s-.24.29-.55.32A1.84,1.84,0,0,1,92.1,8.59Zm.62-2.08a.58.58,0,0,0-.43,0,1.16,1.16,0,0,0-.41.37l.62-.05a4.83,4.83,0,0,0,.61-.1A.87.87,0,0,0,92.72,6.51Z"/><path class="cls-3" d="M97.51,8.15l-.7,1.08-.27.52c-.14.2-.3.28-.48.22a.34.34,0,0,1-.23-.46,4,4,0,0,1,.48-.9l.59-.85.39-.7a2,2,0,0,1,.46-.6.41.41,0,0,1,.38-.07.36.36,0,0,1,.25.33,4.32,4.32,0,0,1-.08.94c-.07.44-.11.93-.14,1.46a17.24,17.24,0,0,0,1-1.41l.32-.51a.46.46,0,0,1,.52-.21c.17.06.26.24.25.53a5.15,5.15,0,0,1-.08.65,12.54,12.54,0,0,0-.24,1.88,6.33,6.33,0,0,1-.06.89.31.31,0,0,1-.19.2.36.36,0,0,1-.27,0q-.25-.09-.27-.51l.06-.63c0-.32.08-.76.17-1.34l-.7.9-.29.4a2.52,2.52,0,0,1-.34.37.39.39,0,0,1-.69-.28l0-.5Q97.44,8.88,97.51,8.15Z"/><path class="cls-6" d="M101.4,11.7a1.61,1.61,0,0,1-.85-.6,1,1,0,0,1-.12-1,1.71,1.71,0,0,1,.67-.93A1.23,1.23,0,0,1,102.22,9a1.74,1.74,0,0,1,.65.37.6.6,0,0,1-.27,1,3.26,3.26,0,0,1-.64.1l-.94.09a.85.85,0,0,0,.22.28,1.23,1.23,0,0,0,.36.19,1.11,1.11,0,0,0,.59.05.63.63,0,0,1,.36,0,.23.23,0,0,1,.17.33c-.06.18-.24.29-.55.31A2,2,0,0,1,101.4,11.7ZM102,9.62a.58.58,0,0,0-.43,0,1.16,1.16,0,0,0-.41.37l.62-.06a3.82,3.82,0,0,0,.62-.1A.9.9,0,0,0,102,9.62Z"/><path class="cls-7" d="M104.84,12.91a.31.31,0,0,1-.23-.4c0-.17.06-.35.1-.52a3.59,3.59,0,0,1,.13-.52s0-.11.08-.21.07-.17.08-.21a.29.29,0,0,1,0-.09l0-.11c0-.13,0-.21,0-.23a.54.54,0,0,0-.5.13,2.13,2.13,0,0,0-.54.57l-.09.21-.09.22a1.6,1.6,0,0,1-.08.2l-.09.2a.33.33,0,0,1-.17.21.36.36,0,0,1-.27,0,.33.33,0,0,1-.21-.17.32.32,0,0,1,0-.27s0-.11.05-.21,0-.17.06-.21.14-.38.25-.65.2-.49.26-.65,0-.12.06-.22a2,2,0,0,1,.07-.22.31.31,0,0,1,.17-.2.36.36,0,0,1,.27,0c.21.07.28.24.21.5v0a1.07,1.07,0,0,1,.86-.1.67.67,0,0,1,.51.59,2.13,2.13,0,0,1-.14.81l-.06.17-.06.15c0,.13-.07.3-.11.51a2.22,2.22,0,0,1-.11.5.27.27,0,0,1-.17.19A.36.36,0,0,1,104.84,12.91Z"/><path class="cls-8" d="M108.18,12.28c0,.11-.09.27-.16.49s-.13.38-.17.49l0,.15a1.23,1.23,0,0,1,0,.16.32.32,0,0,1-.17.19.36.36,0,0,1-.27,0,.35.35,0,0,1-.24-.28,2.18,2.18,0,0,1-.67-.1,1.22,1.22,0,0,1-.54-.34.73.73,0,0,1-.15-.59,7,7,0,0,1,.27-1.11,4,4,0,0,1,.31-.69.32.32,0,0,1,.42-.16.37.37,0,0,1,.21.16.34.34,0,0,1,0,.26,2.22,2.22,0,0,1-.14.32,1.44,1.44,0,0,0-.15.33,6.17,6.17,0,0,0-.18.6,3.35,3.35,0,0,0-.07.45l.1.08.11.05a2.62,2.62,0,0,0,.62.12l.13-.43c.06-.19.11-.32.14-.41a7.39,7.39,0,0,1,.33-.84.32.32,0,0,1,.42-.18.4.4,0,0,1,.22.18.28.28,0,0,1,0,.25Z"/><path class="cls-9" d="M110.46,12.63a.28.28,0,0,1-.22-.3l-.19-.08c-.39-.13-.6-.14-.64,0s.07.19.27.37a4.51,4.51,0,0,1,.53.56.76.76,0,0,1,.16.7.73.73,0,0,1-.6.5,1.61,1.61,0,0,1-.82-.09,1.85,1.85,0,0,1-.56-.29.49.49,0,0,1-.23-.52c.06-.16.18-.21.37-.15a1.3,1.3,0,0,1,.3.18,1.92,1.92,0,0,0,.3.18c.33.11.52.1.56,0s0-.21-.25-.38a6.15,6.15,0,0,1-.53-.53.78.78,0,0,1-.15-.7.7.7,0,0,1,.74-.49,3.59,3.59,0,0,1,1,.21,1,1,0,0,1,.34.18.33.33,0,0,1,0,.37C110.75,12.56,110.62,12.68,110.46,12.63Z"/><path class="cls-5" d="M110.78,15a.37.37,0,0,1-.16-.29.54.54,0,0,1,0-.3.3.3,0,0,1,.21-.13.37.37,0,0,1,.25,0,.39.39,0,0,1,.15.29.45.45,0,0,1,0,.3.26.26,0,0,1-.2.13A.31.31,0,0,1,110.78,15Zm.5-.78a.33.33,0,0,1-.15-.2.3.3,0,0,1,0-.24l.15-.25.15-.26.57-.89.57-.89a.26.26,0,0,1,.2-.14.33.33,0,0,1,.25,0,.3.3,0,0,1,.15.2.34.34,0,0,1,0,.24l-1.45,2.29a.25.25,0,0,1-.19.14A.32.32,0,0,1,111.28,14.25Z"/></g></g></svg>