<svg xmlns="http://www.w3.org/2000/svg" viewBox="0 0 113.26 32.38"><defs><style>.cls-1{fill:#1e1e1e;}.cls-2{fill:#fff;}.cls-3{fill:#d6db72;}.cls-4{fill:#d36c8e;}.cls-5{fill:#48bfb0;}.cls-6{fill:#e588d8;}.cls-7{fill:#e0c83f;}.cls-8{fill:#824d5d;}.cls-9{fill:#f06ef4;}.cls-10{fill:#d86c6c;}</style></defs><g id="Layer_2" data-name="Layer 2"><g id="Logo"><path class="cls-1" d="M1.46,3s1,8.42,1.19,12.55.56,14.74.56,14.74,18.42-1.45,25.59-1.45,31.66,1.24,37.25,1.45,20.66,1.3,27.58,1.13,18.25-1.13,18.25-1.13.08-7.53,0-14.95a87,87,0,0,0-1.42-14.17S89.8,2.19,84.55,2,42,1.15,31.46,1.15,1.46,3,1.46,3Z"/><path class="cls-2" d="M113.13,17.05a76,76,0,0,0-.79-11.48c-.14-1-.27-1.94-.38-2.91a5.16,5.16,0,0,0-.4-2A1.75,1.75,0,0,0,109.9,0C109,0,108,0,107,0c-3.94,0-7.8.81-11.73,1-2.11.09-4.24.05-6.36.11s-4.14.08-6.23,0C74.37.67,66,1.36,57.65.8,53.25.5,48.91.33,44.5.35S35.72.19,31.33.19,22.56.68,18.18.94c-2.16.13-4.31.09-6.47.27-1.93.17-3.87.23-5.8.39-.85.07-1.69.21-2.54.25S1.77,1.77,1,1.77A1,1,0,0,0,.64,3.7a53.32,53.32,0,0,0,.69,6.66c.35,2.36.52,4.74.69,7.11s0,4.59,0,6.88c0,1.31,0,2.62,0,3.92a5.26,5.26,0,0,0,.22,2.59,1,1,0,0,0,.86.5c1.86-.21,3.73-.56,5.61-.71,2.19-.19,4.4-.25,6.59-.41,4.29-.32,8.55-.5,12.85-.48s8.49-.08,12.74-.07,8.45.21,12.65.47c8.48.52,17,1,25.44,1.4,8.64.38,17.56,1.46,26.16.28,2-.27,4-.18,5.94-.32,1.51-.11,1.9-.74,2-2.22C113.44,25.25,113.1,21.11,113.13,17.05Zm-5.65,12.56c-1.81.1-3.61.41-5.42.54-2,.16-4,.12-6,.12-4.45,0-8.9-.32-13.35-.53-8.34-.41-16.68-1-25-1.33-4.11-.17-8.21-.46-12.32-.63s-8-.08-12,0c-4.16.06-8.36-.24-12.51.1s-8.29.45-12.43.8c-1.49.12-3,.37-4.44.57,0-.12,0-.21,0-.23,0-.66,0-1.31,0-2,0-1.31,0-2.62,0-3.92A62.82,62.82,0,0,0,4,16.84c-.15-2.1-.34-4.18-.59-6.27-.28-2.26-.66-4.46-.72-6.74a5.52,5.52,0,0,0,.58,0c.83,0,1.64-.16,2.47-.23,1.85-.16,3.71-.25,5.57-.37C15.48,3,19.7,2.78,23.93,2.5a116.92,116.92,0,0,1,12.42-.31c4.29.17,8.57.06,12.87.13s8.46.58,12.71.62c2.11,0,4.2.12,6.3,0,1.94-.1,3.89.15,5.84.07,3.94-.14,7.84.14,11.77.17,2,0,4.07-.18,6.11-.17a58.92,58.92,0,0,0,6.23-.3c1.83-.19,3.65-.42,5.48-.58S107.35,2,109.2,2l.64,0A8.39,8.39,0,0,1,110,3c.13.89.21,1.79.35,2.69.29,1.93.31,3.86.54,5.8.47,4.05.12,8.13.26,12.2.06,1.77.1,3.54,0,5.31,0,0,0,.29-.07.54a4.6,4.6,0,0,0-.59.09C109.47,29.65,108.47,29.55,107.48,29.61Z"/><path class="cls-3" d="M103.53,18.63a.83.83,0,0,0-.65.47,2.28,2.28,0,0,1-1.34.77,5.61,5.61,0,0,1-1.43.23,3.86,3.86,0,0,1-1.72-.37,3.29,3.29,0,0,1-1.24-1.11l3.38-1.6a13.82,13.82,0,0,0,1.87-1,2,2,0,0,0-.14-3.48,5,5,0,0,0-2.39-.5,3.8,3.8,0,0,0-3.24,1.7,6.46,6.46,0,0,0-1.11,3.85,3.79,3.79,0,0,0,1.35,3.1,5.05,5.05,0,0,0,3.24,1,6.46,6.46,0,0,0,2.63-.6c1.06-.48,1.58-1,1.58-1.69a.75.75,0,0,0-.24-.55A.8.8,0,0,0,103.53,18.63Zm-5.46-4.15a2.27,2.27,0,0,1,1.8-.84,3,3,0,0,1,2.13.71,11.78,11.78,0,0,1-2.28,1.35L97,17A5.76,5.76,0,0,1,98.07,14.48Z"/><path class="cls-4" d="M92.59,8.05a1,1,0,0,0-.73.3,1,1,0,0,0,0,1.45,1,1,0,0,0,.73.3,1,1,0,0,0,.73-.3,1,1,0,0,0,0-1.45A1,1,0,0,0,92.59,8.05Z"/><path class="cls-4" d="M92.3,12.24a.81.81,0,0,0-.62.25.88.88,0,0,0-.24.64q0,.84-.09,2.07c-.06.83-.09,1.52-.09,2.08,0,.35,0,.88,0,1.58s0,1.24,0,1.59a.86.86,0,0,0,.25.64.83.83,0,0,0,.62.24.85.85,0,0,0,.63-.24.93.93,0,0,0,.23-.64q0-.52,0-1.59c0-.7,0-1.23,0-1.58,0-.56,0-1.25.09-2.08s.09-1.51.09-2.07a.88.88,0,0,0-.24-.64A.84.84,0,0,0,92.3,12.24Z"/><path class="cls-5" d="M87.58,8.51a4.81,4.81,0,0,0-3-1.11c-.5,0-.93,0-1.28,0a3.77,3.77,0,0,0-.8.13c-.45-.07-.73.15-.87.67a5.49,5.49,0,0,0-.11,1.28v1.22c0,.73-.07,1.95-.19,3.65s-.16,2.8-.16,3.66v2.6a.85.85,0,0,0,.23.6.77.77,0,0,0,.58.24.78.78,0,0,0,.58-.24.85.85,0,0,0,.23-.6c0-2.23,0-3.78.07-4.67.55.07.91.11,1.08.11a5.59,5.59,0,0,0,3.57-1.17,4.19,4.19,0,0,0,1.66-3.49A3.62,3.62,0,0,0,87.58,8.51Zm-1.17,5.15a4.1,4.1,0,0,1-2.5.75l-1-.11.19-3.52,0-1.63.51-.05.7,0a3.71,3.71,0,0,1,2.11.66,2,2,0,0,1,1.06,1.7A2.62,2.62,0,0,1,86.41,13.66Z"/><path class="cls-6" d="M79.2,12A5,5,0,0,0,78,12c-.1,0-.52,0-1.25.14v-.55l0-.51c0-.31,0-.57,0-.79-.09-.86-.4-1.3-.93-1.3a.85.85,0,0,0-.63.25.79.79,0,0,0-.25.61c0,.22,0,.59,0,1.09s0,.91,0,1.21L73.15,12a.79.79,0,0,0-.61.25.92.92,0,0,0-.24.65.8.8,0,0,0,.79.87c.88.09,1.53.14,2,.15L75.23,19c0,.22,0,.56,0,1s0,.79,0,1a.77.77,0,0,0,.26.58.93.93,0,0,0,.62.23c.64,0,1-.65.93-1.94v-.84l-.17-5.22c.67-.09,1.07-.14,1.2-.14l.44,0,.44,0a.81.81,0,0,0,.62-.25.89.89,0,0,0,.24-.64A.77.77,0,0,0,79.2,12Z"/><path class="cls-7" d="M67.4,12.12A3.94,3.94,0,0,0,64,13.92a5.72,5.72,0,0,0-1,3.52,4.65,4.65,0,0,0,1.26,3.27,3.4,3.4,0,0,0,2.55,1.1,3.53,3.53,0,0,0,3-1.57,5.78,5.78,0,0,0,1-3.35,6.12,6.12,0,0,0-.7-3.15A2.89,2.89,0,0,0,67.4,12.12Zm.93,7.23a2.14,2.14,0,0,1-1.58.68,1.86,1.86,0,0,1-1.37-.6,2.74,2.74,0,0,1-.7-2,4.39,4.39,0,0,1,.58-2.28,2.2,2.2,0,0,1,2-1.24c1.32,0,1.93,1.15,1.85,3.43A2.83,2.83,0,0,1,68.33,19.35Z"/><path class="cls-5" d="M60.39,7.62c-.36,0-.63.31-.82.94a4.41,4.41,0,0,0-.23,1.36q0,2.55-.09,3.81a22.91,22.91,0,0,0-3.83.44l-3.79.72-.05-2.24c0-.47,0-1.17.09-2.11s.09-1.65.09-2.12a.86.86,0,0,0-.24-.62.85.85,0,0,0-.61-.25.82.82,0,0,0-.6.25.87.87,0,0,0-.25.62c0,.47,0,1.17-.08,2.1s-.09,1.63-.09,2.1,0,.82,0,1.48,0,1.14,0,1.46c0,.63-.05,1.56-.16,2.8s-.15,2.17-.15,2.8a.85.85,0,0,0,.24.61.81.81,0,0,0,.61.25.79.79,0,0,0,.6-.25.82.82,0,0,0,.25-.61,21.45,21.45,0,0,1,.16-2.27c.1-1,.15-1.73.15-2.26l3.72-.72a21.16,21.16,0,0,1,3.73-.45c0,.44,0,.87,0,1.3s0,1.12.1,2,.1,1.57.1,2a.84.84,0,0,0,.24.61.82.82,0,0,0,.6.25.79.79,0,0,0,.61-.25A.84.84,0,0,0,61,20.8c0-.45,0-1.12-.1-2s-.09-1.57-.09-2,0-1.46.15-2.63.16-2,.16-2.63c0-.18,0-.44,0-.79s0-.61,0-.79a3.63,3.63,0,0,1,.13-1.08,1.07,1.07,0,0,0,.08-.37A.78.78,0,0,0,61,7.86.88.88,0,0,0,60.39,7.62Z"/><path class="cls-8" d="M44,12.12a3.94,3.94,0,0,0-3.44,1.8,5.66,5.66,0,0,0-1,3.52,4.65,4.65,0,0,0,1.26,3.27,3.4,3.4,0,0,0,2.55,1.1,3.53,3.53,0,0,0,3-1.57,5.78,5.78,0,0,0,1-3.35,6.12,6.12,0,0,0-.7-3.15A2.9,2.9,0,0,0,44,12.12Zm.94,7.23a2.14,2.14,0,0,1-1.58.68,1.86,1.86,0,0,1-1.37-.6,2.7,2.7,0,0,1-.7-2,4.39,4.39,0,0,1,.58-2.28,2.19,2.19,0,0,1,2-1.24c1.31,0,1.93,1.15,1.85,3.43A2.83,2.83,0,0,1,44.91,19.35Z"/><path class="cls-9" d="M37.73,12A5,5,0,0,0,36.52,12c-.1,0-.52,0-1.25.14v-.55l0-.51c0-.31,0-.57,0-.79-.09-.86-.4-1.3-.93-1.3a.85.85,0,0,0-.63.25.79.79,0,0,0-.25.61c0,.22,0,.59,0,1.09s0,.91,0,1.21L31.68,12a.79.79,0,0,0-.61.25.92.92,0,0,0-.24.65.8.8,0,0,0,.79.87c.88.09,1.53.14,2,.15L33.76,19c0,.22,0,.56,0,1s0,.79,0,1a.74.74,0,0,0,.27.58.89.89,0,0,0,.61.23c.64,0,1-.65.93-1.94v-.84l-.17-5.22c.67-.09,1.07-.14,1.2-.14l.44,0,.44,0a.81.81,0,0,0,.62-.25.9.9,0,0,0,.25-.64A.77.77,0,0,0,37.73,12Z"/><path class="cls-10" d="M29.21,12.17a.89.89,0,0,0-.64-.25.8.8,0,0,0-.86.81,28.94,28.94,0,0,0-.17,3.32l0,1.71v1.8a9.15,9.15,0,0,1-2.5.38,1.87,1.87,0,0,1-.56-.09,2.31,2.31,0,0,1-.57-.24,8.33,8.33,0,0,1-.29-1.69c-.07-.7-.1-1.54-.1-2.53A9.78,9.78,0,0,1,23.68,14a11.5,11.5,0,0,0,.13-1.3.82.82,0,0,0-.26-.62.89.89,0,0,0-.64-.24.8.8,0,0,0-.84.77,17.18,17.18,0,0,0-.26,2.75,29.1,29.1,0,0,0,.34,4.18,2.32,2.32,0,0,0,1,1.65,3.39,3.39,0,0,0,1.92.51,5.43,5.43,0,0,0,2.54-.57q.2.84.87.84a.85.85,0,0,0,.63-.25.81.81,0,0,0,.25-.62c0-.13,0-.33,0-.59s0-.46,0-.59c0-.43,0-1.06,0-1.91V16.13l.15-3.34A.73.73,0,0,0,29.21,12.17Z"/><path class="cls-5" d="M18.79,18.31l-1.31-6.14-.56-3c-.17-.65-.49-1-1-1s-1.21,1.11-2.61,3.35Q11.82,14,10.81,15.92c-.57.14-.86.45-.86.92a.94.94,0,0,0,.15.53A16.32,16.32,0,0,0,8.76,20.6a.86.86,0,0,0,.28.64.92.92,0,0,0,.63.25.85.85,0,0,0,.77-.49c.71-1.49,1.22-2.62,1.51-3.39l2.35-.48c1-.22,1.76-.36,2.36-.45.23,1.33.43,2.26.58,2.79.4,1.39.87,2.08,1.41,2.08a.88.88,0,0,0,.63-.25.84.84,0,0,0,.27-.64,3.52,3.52,0,0,0-.25-.95ZM13,15.53l2.52-4.08.72,3.41C14.8,15.12,13.72,15.34,13,15.53Z"/></g></g></svg>