<svg xmlns="http://www.w3.org/2000/svg" viewBox="0 0 100 100"><defs><style>.cls-1{fill:none;stroke:#888;stroke-linecap:round;stroke-miterlimit:10;stroke-width:5.17px;}.cls-2{fill:#888;}</style></defs><g id="Content"><path class="cls-1" d="M17.49,32a37.18,37.18,0,0,1,68.68,9.54"/><path class="cls-1" d="M82.39,68.21a37.16,37.16,0,0,1-68.54-9.56"/><path class="cls-2" d="M71.47,64.18l13.82-8A2.83,2.83,0,0,1,89.46,58l3.85,15.49a2.84,2.84,0,0,1-3.86,3.3L71.79,69.25A2.84,2.84,0,0,1,71.47,64.18Z"/><path class="cls-2" d="M28.53,35.81l-13.82,8A2.83,2.83,0,0,1,10.54,42L6.69,26.55a2.84,2.84,0,0,1,3.86-3.3l17.66,7.49A2.84,2.84,0,0,1,28.53,35.81Z"/></g></svg>