<svg xmlns="http://www.w3.org/2000/svg" viewBox="0 0 100 100"><defs><style>.cls-1{fill:#888;}</style></defs><g id="Content"><path class="cls-1" d="M61.49,80.73H50.24a1,1,0,0,1-1-.66L44.41,67.44a1,1,0,0,0-1-.67H20.31a1,1,0,0,0-1,.69L14.76,80.05a1,1,0,0,1-1,.68H2.86a1,1,0,0,1-1-1.41L24,22.62a5.26,5.26,0,0,1,4.9-3.35h6a5.25,5.25,0,0,1,4.88,3.3L62.45,79.31A1,1,0,0,1,61.49,80.73ZM39.65,55l-7-18.75a1,1,0,0,0-2,0L23.91,55a1,1,0,0,0,1,1.4h13.8A1,1,0,0,0,39.65,55Z"/><path class="cls-1" d="M97.45,44.24,85.12,31.91a2.49,2.49,0,0,0-3.52,3.52l8.08,8.08H62.53a2.49,2.49,0,0,0,0,5H89.68L81.6,56.56a2.49,2.49,0,0,0,0,3.52,2.49,2.49,0,0,0,3.52,0L97.45,47.76a2.49,2.49,0,0,0,0-3.52Z"/></g></svg>