<svg xmlns="http://www.w3.org/2000/svg" viewBox="0 0 100 100"><defs><style>.cls-1{fill:#888;}</style></defs><g id="Content"><path class="cls-1" d="M91.57,40.44H82.18a33.74,33.74,0,0,0-7.83-13.5l4.73-8.17a2.23,2.23,0,0,0-.84-3.06L65.58,8.39a2.24,2.24,0,0,0-3.07.83l-4.69,8.13a33.69,33.69,0,0,0-15.64,0L37.49,9.22a2.24,2.24,0,0,0-3.07-.83L21.76,15.71a2.23,2.23,0,0,0-.84,3.06l4.73,8.17a33.74,33.74,0,0,0-7.83,13.5H8.43a2.25,2.25,0,0,0-2.26,2.25V57.31a2.25,2.25,0,0,0,2.26,2.25h9.39a33.4,33.4,0,0,0,7.83,13.5l-4.73,8.17a2.26,2.26,0,0,0,.84,3.08l12.66,7.3a2.25,2.25,0,0,0,3.07-.82l4.7-8.14a33.61,33.61,0,0,0,15.62,0l4.7,8.14a2.25,2.25,0,0,0,3.07.82l12.66-7.3a2.26,2.26,0,0,0,.84-3.08l-4.73-8.17a33.64,33.64,0,0,0,7.83-13.49h9.39a2.26,2.26,0,0,0,2.26-2.26V42.69A2.25,2.25,0,0,0,91.57,40.44ZM51.36,66.77c-.46,0-.91,0-1.36,0s-.9,0-1.36,0a16.82,16.82,0,0,1-12.47-7.21,15.47,15.47,0,0,1-1.36-2.37A16.28,16.28,0,0,1,33.18,50a16.64,16.64,0,0,1,1.63-7.2,15.47,15.47,0,0,1,1.36-2.37,16.82,16.82,0,0,1,12.47-7.21c.46,0,.91-.06,1.36-.06s.9,0,1.36.06a16.82,16.82,0,0,1,12.47,7.21,15.47,15.47,0,0,1,1.36,2.37A16.64,16.64,0,0,1,66.82,50a16.28,16.28,0,0,1-1.63,7.18,15.1,15.1,0,0,1-1.36,2.38A16.81,16.81,0,0,1,51.36,66.77Z"/></g></svg>