<svg xmlns="http://www.w3.org/2000/svg" viewBox="0 0 100 100"><defs><style>.cls-1{fill:#888;}.cls-2{fill:none;stroke:#888;stroke-linecap:round;stroke-linejoin:round;stroke-width:4.61px;}</style></defs><g id="Content"><path class="cls-1" d="M67.94,5H11.59A7.71,7.71,0,0,0,3.9,12.7V66.92a7.71,7.71,0,0,0,7.69,7.68H31.31L26.7,70H11.59a3.09,3.09,0,0,1-3.08-3.07V12.7a3.09,3.09,0,0,1,3.08-3.08H67.94A3.09,3.09,0,0,1,71,12.7v12l4.61,4.61V12.7A7.69,7.69,0,0,0,67.94,5Z"/><rect class="cls-1" x="7.41" y="8.17" width="65.23" height="10.25"/><path class="cls-1" d="M58.63,91.38V29.22l2.31-3.61h0l2.3,3.61V91.38L60.94,95h0Z"/><polyline class="cls-2" points="49.98 35.63 60.94 24.67 71.9 35.63"/><polyline class="cls-2" points="71.9 83.56 60.94 94.52 49.98 83.56"/><path class="cls-1" d="M29.39,57.52H91.54l3.61,2.31h0l-3.61,2.3H29.39l-3.61-2.3h0Z"/><polyline class="cls-2" points="85.14 48.86 96.1 59.83 85.14 70.79"/><polyline class="cls-2" points="37.21 70.79 26.25 59.83 37.21 48.86"/></g></svg>