<svg xmlns="http://www.w3.org/2000/svg" viewBox="0 0 100 100"><defs><style>.cls-1{fill:#888;}.cls-2{fill:none;stroke:#888;stroke-linecap:round;stroke-linejoin:round;stroke-width:4.61px;}</style></defs><g id="Content"><path class="cls-1" d="M69.76,6.58H13.41a7.7,7.7,0,0,0-7.69,7.68V68.48a7.7,7.7,0,0,0,7.69,7.68H67l-4.61-4.61h-49a3.08,3.08,0,0,1-3.08-3.07V14.26a3.08,3.08,0,0,1,3.08-3.07H69.76a3.08,3.08,0,0,1,3.07,3.07v47l4.61,4.61V14.26A7.68,7.68,0,0,0,69.76,6.58Z"/><rect class="cls-1" x="9.23" y="9.74" width="65.23" height="10.25"/><path class="cls-1" d="M90.1,92.5,46.15,48.55l-.92-4.18h0l4.18.92,44,43.95.92,4.18h0Z"/><polyline class="cls-2" points="44.56 59.2 44.56 43.7 60.06 43.7"/><polyline class="cls-2" points="93.95 77.59 93.95 93.09 78.45 93.09"/></g></svg>