<?xml version="1.0" encoding="UTF-8"?><svg id="Content" xmlns="http://www.w3.org/2000/svg" viewBox="0 0 187.55 58.11"><defs><style>.cls-1{fill:#fff;}.cls-2{stroke-width:.95px;}.cls-2,.cls-3,.cls-4,.cls-5{fill:none;stroke:#888;stroke-miterlimit:10;}.cls-4{stroke-dasharray:0 0 4.75 1.9;}.cls-4,.cls-5{stroke-width:.95px;}.cls-6{fill:#48bfb0;}.cls-7{fill:#888;}</style></defs><g><line class="cls-5" x1="115.28" y1="37.09" x2="117.05" y2="35.32"/><line class="cls-4" x1="118.39" y1="33.97" x2="141.25" y2="11.12"/><line class="cls-5" x1="141.92" y1="10.45" x2="143.69" y2="8.68"/></g><polyline class="cls-2" points="115.28 37.08 21.34 37.08 50.87 7.56"/><rect class="cls-2" x="50.29" y="2.13" width="42.5" height="10.62" rx="1.58" ry="1.58"/><g><path class="cls-3" d="M21.34,56.88c-10.92,0-19.8-8.88-19.8-19.8S10.42,17.29,21.34,17.29s19.8,8.88,19.8,19.8-8.88,19.8-19.8,19.8Zm0-35.6c-8.71,0-15.8,7.09-15.8,15.8s7.09,15.8,15.8,15.8,15.8-7.09,15.8-15.8-7.09-15.8-15.8-15.8Z"/><path class="cls-7" d="M38.49,46.99l-3.46-2c1.38-2.39,2.11-5.12,2.11-7.9s-.73-5.51-2.11-7.9l3.46-2c1.73,3,2.65,6.42,2.65,9.9s-.92,6.91-2.65,9.9Z"/></g><g><path class="cls-3" d="M129.28,51.08c-7.72,7.72-20.28,7.72-28,0s-7.72-20.28,0-28,20.28-7.72,28,0,7.72,20.28,0,28Zm-25.17-25.17c-6.16,6.16-6.16,16.18,0,22.34,6.16,6.16,16.18,6.16,22.34,0,6.16-6.16,6.16-16.18,0-22.34s-16.18-6.16-22.34,0Z"/><path class="cls-7" d="M134.41,31.96l-3.86,1.03c-.71-2.67-2.13-5.11-4.09-7.08s-4.41-3.38-7.08-4.09l1.03-3.86c3.34,.89,6.41,2.67,8.87,5.13s4.24,5.53,5.13,8.87Z"/></g><g><circle class="cls-6" cx="21.34" cy="37.09" r="6.22"/><path class="cls-1" d="M21.34,33.25c.28,0,.5,.22,.5,.5v2.83h1.98c.19,0,.36,.11,.45,.28,.04,.07,.05,.15,.05,.22,0,.1-.03,.21-.1,.3l-2.48,3.33c-.1,.13-.24,.2-.4,.2s-.31-.08-.4-.2l-2.48-3.33c-.11-.15-.13-.36-.04-.52,.08-.17,.26-.28,.45-.28h1.98v-2.83c0-.28,.22-.5,.5-.5Z"/></g><g><circle class="cls-6" cx="115.28" cy="37.09" r="6.22"/><path class="cls-1" d="M115.28,40.92c-.28,0-.5-.22-.5-.5v-2.83h-1.98c-.19,0-.36-.11-.45-.28-.04-.07-.05-.15-.05-.22,0-.1,.03-.21,.1-.3l2.48-3.33c.1-.13,.24-.2,.4-.2s.31,.08,.4,.2l2.48,3.33c.11,.15,.13,.36,.04,.52-.08,.17-.26,.28-.45,.28h-1.98v2.83c0,.28-.22,.5-.5,.5Z"/></g><g><circle class="cls-6" cx="50.87" cy="7.44" r="6.22"/><path class="cls-1" d="M50.87,11.28c-.28,0-.5-.22-.5-.5v-2.83h-1.98c-.19,0-.36-.11-.45-.28-.04-.07-.05-.15-.05-.22,0-.1,.03-.21,.1-.3l2.48-3.33c.1-.13,.24-.2,.4-.2s.31,.08,.4,.2l2.48,3.33c.11,.15,.13,.36,.04,.52-.08,.17-.26,.28-.45,.28h-1.98v2.83c0,.28-.22,.5-.5,.5Z"/></g><rect class="cls-2" x="143.51" y="2.13" width="42.5" height="10.62" rx="1.58" ry="1.58"/></svg>