<?xml version="1.0" encoding="UTF-8"?><svg xmlns="http://www.w3.org/2000/svg" viewBox="0 0 187.55 60"><defs><style>.cls-1{fill:#fff;}.cls-2{stroke-dasharray:0 0 4.87 1.95;}.cls-2,.cls-3,.cls-4,.cls-5,.cls-6{fill:none;stroke:#888;stroke-miterlimit:10;}.cls-2,.cls-5,.cls-6{stroke-width:.95px;}.cls-3{stroke-width:.95px;}.cls-7{stroke-width:.42px;}.cls-7,.cls-8{stroke:#fff;stroke-linejoin:round;}.cls-7,.cls-8,.cls-9{fill:#48bfb0;}.cls-5{stroke-dasharray:0 0 5.03 2.01;}.cls-10{fill:#888;}</style></defs><g id="Content"><g><g><line class="cls-6" x1="50.34" y1="7.63" x2="48.58" y2="9.39"/><line class="cls-2" x1="47.2" y1="10.77" x2="23.8" y2="34.17"/><polyline class="cls-6" points="23.11 34.86 21.34 36.63 23.84 36.63"/><polyline class="cls-5" points="25.85 36.63 115.28 36.63 140.97 10.94"/><line class="cls-6" x1="141.68" y1="10.23" x2="143.45" y2="8.46"/></g><rect class="cls-3" x="50.29" y="1.68" width="42.5" height="10.62" rx="1.58" ry="1.58"/><g><path class="cls-4" d="M21.34,56.43c-10.92,0-19.8-8.88-19.8-19.8S10.42,16.83,21.34,16.83s19.8,8.88,19.8,19.8-8.88,19.8-19.8,19.8Zm0-35.6c-8.71,0-15.8,7.09-15.8,15.8s7.09,15.8,15.8,15.8,15.8-7.09,15.8-15.8-7.09-15.8-15.8-15.8Z"/><path class="cls-10" d="M38.49,46.54l-3.46-2c1.38-2.39,2.11-5.12,2.11-7.9s-.73-5.51-2.11-7.9l3.46-2c1.73,3,2.65,6.42,2.65,9.9s-.92,6.91-2.65,9.9Z"/></g><g><path class="cls-4" d="M129.28,50.63c-7.72,7.72-20.28,7.72-28,0-7.72-7.72-7.72-20.28,0-28s20.28-7.72,28,0,7.72,20.28,0,28Zm-25.17-25.17c-6.16,6.16-6.16,16.18,0,22.34s16.18,6.16,22.34,0c6.16-6.16,6.16-16.18,0-22.34-6.16-6.16-16.18-6.16-22.34,0Z"/><path class="cls-10" d="M134.41,31.51l-3.86,1.03c-.71-2.67-2.13-5.11-4.09-7.08-1.97-1.97-4.41-3.38-7.08-4.09l1.03-3.86c3.34,.89,6.41,2.67,8.87,5.13s4.24,5.53,5.13,8.87Z"/></g><g><circle class="cls-9" cx="21.34" cy="36.63" r="6.22"/><path class="cls-1" d="M21.34,40.47c-.28,0-.5-.22-.5-.5v-2.83h-1.98c-.19,0-.36-.11-.45-.28-.04-.07-.05-.15-.05-.22,0-.1,.03-.21,.1-.3l2.48-3.33c.1-.13,.24-.2,.4-.2s.31,.08,.4,.2l2.48,3.33c.11,.15,.13,.36,.04,.52-.08,.17-.26,.28-.45,.28h-1.98v2.83c0,.28-.22,.5-.5,.5Z"/></g><rect class="cls-3" x="143.51" y="1.68" width="42.5" height="10.62" rx="1.58" ry="1.58"/><circle class="cls-10" cx="115.28" cy="36.63" r=".88"/></g></g><g id="Annotation"><polygon class="cls-8" points="169.44 17.55 174.32 27.1 171.78 28.39 166.85 18.75 162.89 22.71 162.89 5.27 175.45 17.55 169.44 17.55"/><polygon class="cls-8" points="77.88 17.55 82.76 27.1 80.22 28.39 75.29 18.75 71.33 22.71 71.33 5.27 83.89 17.55 77.88 17.55"/><polygon class="cls-7" points="119.07 44 121.09 47.97 120.04 48.5 117.99 44.5 116.35 46.14 116.35 38.9 121.56 44 119.07 44"/></g></svg>